<svg xmlns="http://www.w3.org/2000/svg" viewBox="0 0 140 28.43"><defs><style>.cls-1{fill:#fff;}</style></defs><title>loga-web</title><g id="Layer_1" data-name="Layer 1"><polygon class="cls-1" points="80.34 24.18 80.34 24.18 72.41 24.18 68.2 28.38 84.54 28.38 80.34 24.18 80.34 24.18"/><path class="cls-1" d="M10.38,25.91h7.26v2.52H7.11V12.12h3.27V25.91Zm12.41-3.39v5.91H19.52V12.12H26a6.41,6.41,0,0,1,4.42,1.44,4.8,4.8,0,0,1,1.61,3.77,4.77,4.77,0,0,1-1.61,3.76A6.45,6.45,0,0,1,26,22.52Zm0-2.53H26a2.74,2.74,0,0,0,2.07-.74,2.66,2.66,0,0,0,.7-1.9,2.75,2.75,0,0,0-.7-1.94A2.67,2.67,0,0,0,26,14.65H22.79V20Zm18.54,4.93H35.6l-1.11,3.51h-3.3L36.8,12.12h3.35l5.59,16.31h-3.3l-1.11-3.51ZM36.41,22.4h4.11l-2-6.46h-.06l-2,6.46Zm14.12-.48v6.51H47.26V12.12h6.15a6.72,6.72,0,0,1,4.36,1.28,4.29,4.29,0,0,1,1.58,3.54,3.61,3.61,0,0,1-.66,2.18,4.7,4.7,0,0,1-1.94,1.46l3.53,7.85H56.91l-3.27-6.51Zm0-2.52h2.82a3.09,3.09,0,0,0,2.06-.59,2.15,2.15,0,0,0,.68-1.72,2.37,2.37,0,0,0-.68-1.78,2.76,2.76,0,0,0-2-.66H50.53V19.4Z"/><path class="cls-1" d="M94.38,9.82v6.54H91.1V0h6.17a6.8,6.8,0,0,1,4.38,1.28,4.3,4.3,0,0,1,1.58,3.55A3.6,3.6,0,0,1,102.56,7a4.57,4.57,0,0,1-1.94,1.47l3.54,7.88h-3.38L97.51,9.82Zm0-2.53h2.83a3.14,3.14,0,0,0,2.07-.58A2.17,2.17,0,0,0,100,5a2.4,2.4,0,0,0-.68-1.79,2.8,2.8,0,0,0-2-.66H94.38V7.29Zm15.21,2.53v6.54h-3.28V0h6.17a6.82,6.82,0,0,1,4.38,1.28,4.3,4.3,0,0,1,1.58,3.55A3.6,3.6,0,0,1,117.77,7a4.57,4.57,0,0,1-1.94,1.47l3.54,7.88H116l-3.28-6.54Zm0-2.53h2.83a3.14,3.14,0,0,0,2.07-.58A2.17,2.17,0,0,0,115.16,5a2.39,2.39,0,0,0-.67-1.79,2.8,2.8,0,0,0-2-.66h-2.89V7.29Zm11.93,9.07V0h5.62a6.74,6.74,0,0,1,4.94,1.92A6.56,6.56,0,0,1,134,6.83V9.54a6.56,6.56,0,0,1-1.94,4.91,6.77,6.77,0,0,1-4.94,1.91ZM124.8,2.53v11.3H127a3.4,3.4,0,0,0,2.76-1.19,4.67,4.67,0,0,0,1-3.11V6.81a4.61,4.61,0,0,0-1-3.09A3.4,3.4,0,0,0,127,2.53Z"/><polygon class="cls-1" points="71.88 12.13 71.88 12.13 69.78 14.23 71.88 16.33 80.86 16.33 82.97 14.23 80.86 12.13 71.88 12.13 71.88 12.13"/><polygon class="cls-1" points="83.73 13.43 83.73 13.43 85.31 11.81 85.31 0.91 81.11 5.05 81.11 10.76 83.73 13.43 83.73 13.43"/><polygon class="cls-1" points="68.97 15.05 68.97 15.05 67.39 16.63 67.39 27.59 71.6 23.38 71.6 17.68 68.97 15.05 68.97 15.05"/><polygon class="cls-1" points="68.42 0.07 72.62 4.28 80.55 4.28 84.75 0.07 68.42 0.07 68.42 0.07"/><polygon class="cls-1" points="87.44 28.38 140 28.38 135.93 24.18 83.37 24.18 87.44 28.38 87.44 28.38"/><polygon class="cls-1" points="0 0.07 65.55 0.07 69.62 4.28 4.07 4.28 0 0.07 0 0.07"/></g></svg>