<svg xmlns="http://www.w3.org/2000/svg" viewBox="0 0 140 28.88"><defs><style>.cls-1{fill:#fff;}</style></defs><title>loga-web</title><g id="Layer_1" data-name="Layer 1"><polygon class="cls-1" points="87.44 28.38 140 28.38 135.93 24.17 83.37 24.17 87.44 28.38 87.44 28.38"/><polygon class="cls-1" points="0 0 65.55 0 69.62 4.21 4.07 4.21 0 0 0 0"/><path class="cls-1" d="M15.12,24.39a1.89,1.89,0,0,0-.66-1.5,6.76,6.76,0,0,0-2.34-1.07,13.18,13.18,0,0,1-4.39-2,3.74,3.74,0,0,1-1.49-3.15A3.89,3.89,0,0,1,8,13.4a7,7,0,0,1,4.35-1.28,6.58,6.58,0,0,1,4.38,1.43,4.28,4.28,0,0,1,1.63,3.52l0,.07H15.12a2.35,2.35,0,0,0-.75-1.81,3,3,0,0,0-2.12-.68,3.19,3.19,0,0,0-2,.57A1.82,1.82,0,0,0,9.5,16.7,1.58,1.58,0,0,0,10.27,18a10.3,10.3,0,0,0,2.65,1.12,10.21,10.21,0,0,1,4.08,2,4.1,4.1,0,0,1,1.39,3.23,3.88,3.88,0,0,1-1.65,3.3,7.17,7.17,0,0,1-4.36,1.21,8,8,0,0,1-4.64-1.37,4.32,4.32,0,0,1-1.93-3.85l0-.07H9a2.54,2.54,0,0,0,.89,2.14,4,4,0,0,0,2.48.67,3.31,3.31,0,0,0,2-.54,1.77,1.77,0,0,0,.7-1.47Zm17-9.52H27.51V28.65H24.24V14.87H19.66V12.35H32.12v2.52ZM46.68,22a6.82,6.82,0,0,1-1.9,5,6.58,6.58,0,0,1-4.93,2,6.52,6.52,0,0,1-4.89-2,6.88,6.88,0,0,1-1.87-5V19A6.84,6.84,0,0,1,35,14.09a6.45,6.45,0,0,1,4.88-2,6.58,6.58,0,0,1,4.94,2A6.82,6.82,0,0,1,46.68,19V22Zm-3.27-3a4.92,4.92,0,0,0-.95-3.13,3.12,3.12,0,0,0-2.62-1.22,3,3,0,0,0-2.58,1.21A5,5,0,0,0,36.34,19v3a5.07,5.07,0,0,0,.93,3.16,3.05,3.05,0,0,0,2.58,1.23,3.1,3.1,0,0,0,2.62-1.23A5,5,0,0,0,43.41,22V19Zm9.09,3.14v6.51H49.23V12.35h6.15a6.71,6.71,0,0,1,4.35,1.28,4.28,4.28,0,0,1,1.58,3.54,3.58,3.58,0,0,1-.66,2.17,4.8,4.8,0,0,1-1.94,1.47l3.53,7.84H58.87l-3.26-6.51Zm0-2.52h2.82a3.11,3.11,0,0,0,2-.58,2.16,2.16,0,0,0,.68-1.73,2.35,2.35,0,0,0-.68-1.77,2.75,2.75,0,0,0-2-.67H52.5v4.75Z"/><path class="cls-1" d="M94.38,9.82v6.54H91.1V0h6.17a6.8,6.8,0,0,1,4.38,1.28,4.3,4.3,0,0,1,1.58,3.55A3.6,3.6,0,0,1,102.56,7a4.57,4.57,0,0,1-1.94,1.47l3.54,7.88h-3.38L97.51,9.82Zm0-2.53h2.83a3.14,3.14,0,0,0,2.07-.58A2.17,2.17,0,0,0,100,5a2.4,2.4,0,0,0-.68-1.79,2.8,2.8,0,0,0-2-.66H94.38V7.29Zm15.21,2.53v6.54h-3.28V0h6.17a6.82,6.82,0,0,1,4.38,1.28,4.3,4.3,0,0,1,1.58,3.55A3.6,3.6,0,0,1,117.77,7a4.57,4.57,0,0,1-1.94,1.47l3.54,7.88H116l-3.28-6.54Zm0-2.53h2.83a3.14,3.14,0,0,0,2.07-.58A2.17,2.17,0,0,0,115.16,5a2.39,2.39,0,0,0-.67-1.79,2.8,2.8,0,0,0-2-.66h-2.89V7.29Zm11.93,9.07V0h5.62a6.74,6.74,0,0,1,4.94,1.92A6.56,6.56,0,0,1,134,6.83V9.54a6.56,6.56,0,0,1-1.94,4.91,6.77,6.77,0,0,1-4.94,1.91ZM124.8,2.53v11.3H127a3.4,3.4,0,0,0,2.76-1.19,4.67,4.67,0,0,0,1-3.11V6.81a4.61,4.61,0,0,0-1-3.09A3.4,3.4,0,0,0,127,2.53Z"/><polygon class="cls-1" points="71.88 12.13 71.88 12.13 69.78 14.23 71.88 16.33 80.86 16.33 82.97 14.23 80.86 12.13 71.88 12.13 71.88 12.13"/><polygon class="cls-1" points="83.73 13.43 83.73 13.43 85.31 11.81 85.31 0.91 81.11 5.05 81.11 10.76 83.73 13.43 83.73 13.43"/><polygon class="cls-1" points="68.97 15.05 68.97 15.05 67.39 16.63 67.39 27.59 71.6 23.38 71.6 17.68 68.97 15.05 68.97 15.05"/><polygon class="cls-1" points="80.34 24.18 80.34 24.18 72.41 24.18 68.2 28.38 84.54 28.38 80.34 24.18 80.34 24.18"/><polygon class="cls-1" points="68.2 0.07 72.41 4.28 80.34 4.28 84.54 0.07 68.2 0.07 68.2 0.07"/></g></svg>