<svg id="Vrstva_1" data-name="Vrstva 1" xmlns="http://www.w3.org/2000/svg" viewBox="0 0 1863.82 6375.1"><defs><style>.cls-1{fill:#f4f6f6;}</style></defs><title>x-pattern-3</title><polygon class="cls-1" points="419.37 393.65 419.47 393.54 385.59 181.37 363.76 47.76 201.05 0 287.34 354.75 16.9 610.47 180.81 658.59 183.8 655.38 419.43 393.67 419.37 393.65"/><polygon class="cls-1" points="467.28 421.27 357.09 537.54 389.27 719.78 561.5 770.34 467.28 421.27"/><polygon class="cls-1" points="727.55 154.55 563.76 106.47 444.45 236.96 474.66 395.61 727.55 154.55"/><polygon class="cls-1" points="402.47 4746.27 402.57 4746.15 368.69 4533.98 346.86 4400.38 184.15 4352.62 270.44 4707.37 0 4963.09 163.92 5011.2 166.9 5008 402.53 4746.29 402.47 4746.27"/><polygon class="cls-1" points="450.38 4773.88 340.2 4890.15 372.37 5072.4 544.61 5122.95 450.38 4773.88"/><polygon class="cls-1" points="710.65 4507.16 546.87 4459.09 427.55 4589.58 457.77 4748.22 710.65 4507.16"/><polygon class="cls-1" points="1482.39 914.06 1482.4 913.91 1331.51 780.67 1236.14 697.07 1090.03 759.46 1363.76 964.58 1320.53 1310.59 1467.72 1247.74 1467.97 1243.64 1482.45 914.03 1482.39 914.06"/><polygon class="cls-1" points="1533.49 905.49 1523.08 1055.2 1654.9 1167.81 1809.56 1101.77 1533.49 905.49"/><polygon class="cls-1" points="1562.81 557.58 1415.73 620.38 1407.19 785.81 1523.55 882.53 1562.81 557.58"/><polygon class="cls-1" points="1244.81 5739.6 1244.99 5739.42 1201.98 5384.37 1174.07 5160.77 906.43 5071.09 1027.65 5666.59 561.72 6074.93 831.35 6165.28 836.51 6160.14 1244.91 5739.64 1244.81 5739.6"/><polygon class="cls-1" points="1322.77 5788.55 1132.18 5975.01 1174.23 6280.17 1457.54 6375.1 1322.77 5788.55"/><polygon class="cls-1" points="1772.46 5361.27 1503.06 5271 1296.39 5480.55 1336.67 5746.33 1772.46 5361.27"/><polygon class="cls-1" points="1518.39 4092.86 1518.42 4092.69 1368.32 3907.18 1273.32 3790.64 1090.21 3834.76 1369.74 4128.52 1250.97 4524.47 1435.43 4480.03 1436.52 4475.29 1518.46 4092.84 1518.39 4092.86"/><polygon class="cls-1" points="1579.81 4092.91 1538.11 4265.87 1670 4423.51 1863.82 4376.81 1579.81 4092.91"/><polygon class="cls-1" points="1682.69 3692 1498.38 3736.41 1455.77 3928.11 1572.71 4064.12 1682.69 3692"/><polygon class="cls-1" points="380.92 3455.59 381 3455.47 319.99 3249.45 281.07 3119.79 113.55 3093.46 244.97 3434.08 9.84 3722.61 178.61 3749.14 181.15 3745.57 380.98 3455.6 380.92 3455.59"/><polygon class="cls-1" points="431.99 3476.78 337.76 3606.32 393.22 3782.87 570.54 3810.75 431.99 3476.78"/><polygon class="cls-1" points="655.61 3178.66 486.99 3152.16 385.54 3296.97 436 3450.38 655.61 3178.66"/><polygon class="cls-1" points="1451.24 2822.46 1451.24 2822.36 1348.02 2731.21 1282.78 2674.02 1182.82 2716.7 1370.08 2857.02 1340.51 3093.73 1441.2 3050.73 1441.37 3047.93 1451.28 2822.45 1451.24 2822.46"/><polygon class="cls-1" points="1486.19 2816.6 1479.07 2919.01 1569.25 2996.05 1675.06 2950.87 1486.19 2816.6"/><polygon class="cls-1" points="1506.25 2578.59 1405.63 2621.56 1399.79 2734.73 1479.39 2800.89 1506.25 2578.59"/><polygon class="cls-1" points="812.61 1949.66 812.73 1949.49 730.72 1681.9 678.43 1513.49 459.91 1481.26 635.28 1923.31 332.57 2302.02 552.71 2334.49 555.98 2329.82 812.7 1949.67 812.61 1949.66"/><polygon class="cls-1" points="879.4 1976.63 758.26 2146.51 832.67 2375.8 1063.98 2409.92 879.4 1976.63"/><polygon class="cls-1" points="1167 1585.57 947.04 1553.12 816.68 1742.99 884.3 1942.19 1167 1585.57"/></svg>