<svg xmlns="http://www.w3.org/2000/svg" viewBox="0 0 160 46.21"><defs><style>.cls-1{fill:#9c9b9b;}.cls-2{fill:#575756;}.cls-3{fill:#243d4a;}.cls-4{fill:#43808b;}</style></defs><title>loga-web</title><g id="Layer_1" data-name="Layer 1"><polygon class="cls-1" points="12.36 45.93 12.22 46.21 0 46.21 13.41 23.21 0.34 0.6 12.47 0.6 16.66 9.33 23.26 23.21 12.36 45.93 12.36 45.93"/><polygon class="cls-2" points="12.36 45.93 12.22 46.21 0 46.21 13.41 23.22 23.26 23.22 12.36 45.93 12.36 45.93"/><polygon class="cls-3" points="27.1 24.15 40.6 46.21 27.76 46.21 21.88 34.35 27.1 24.15 27.1 24.15"/><polygon class="cls-4" points="21.82 11.96 27.38 0.6 39.59 0.6 27.09 22.24 21.82 11.96 21.82 11.96"/><polygon class="cls-1" points="147.64 45.33 147.78 45.61 160 45.61 146.59 22.61 159.66 0 147.53 0 143.34 8.73 136.74 22.61 147.64 45.33 147.64 45.33"/><polygon class="cls-2" points="147.64 45.33 147.78 45.61 160 45.61 146.59 22.62 136.74 22.62 147.64 45.33 147.64 45.33"/><polygon class="cls-3" points="132.9 23.55 119.4 45.61 132.24 45.61 138.12 33.75 132.9 23.55 132.9 23.55"/><polygon class="cls-4" points="138.18 11.36 132.62 0 120.41 0 132.91 21.64 138.18 11.36 138.18 11.36"/><path class="cls-2" d="M120.73,8.17V28.64a10.17,10.17,0,0,1-3.55,8.28,14.13,14.13,0,0,1-9.31,2.94,14.29,14.29,0,0,1-9.38-2.94,10.15,10.15,0,0,1-3.56-8.28V8.17h7.28V28.64a5.54,5.54,0,0,0,1.48,4.25,5.86,5.86,0,0,0,4.18,1.39A5.78,5.78,0,0,0,112,32.91a5.64,5.64,0,0,0,1.45-4.27V8.17Z"/><path class="cls-2" d="M74.33,27.46v12H67.06V8.17h12c3.62,0,6.48.83,8.6,2.51a8.3,8.3,0,0,1,3.18,6.88,6.86,6.86,0,0,1-1.27,4.17,9,9,0,0,1-3.77,2.83l7,14.86H85.37l-6-12Zm0-5.58h4.79a5,5,0,0,0,3.35-1A3.59,3.59,0,0,0,83.63,18a4.14,4.14,0,0,0-1.2-3.09,4.57,4.57,0,0,0-3.35-1.17H74.33v8.13Z"/><path class="cls-2" d="M63.84,26.61a13.06,13.06,0,0,1-3.66,9.51,12.77,12.77,0,0,1-9.56,3.74A12.73,12.73,0,0,1,37.29,26.61V21A13,13,0,0,1,41,11.48a12.84,12.84,0,0,1,9.6-3.75,12.84,12.84,0,0,1,9.57,3.75A13,13,0,0,1,63.84,21v5.63Zm-7.23-5.67A9,9,0,0,0,55,15.46a5.2,5.2,0,0,0-4.45-2.15,5.24,5.24,0,0,0-4.5,2.13,9.07,9.07,0,0,0-1.55,5.5V26.6a9.1,9.1,0,0,0,1.57,5.53,5.28,5.28,0,0,0,4.52,2.15A5.15,5.15,0,0,0,55,32.13a9.1,9.1,0,0,0,1.57-5.53V20.94Z"/></g></svg>