<?xml version="1.0" encoding="utf-8"?>
<!-- Generator: Adobe Illustrator 24.0.0, SVG Export Plug-In . SVG Version: 6.00 Build 0)  -->
<svg version="1.1" id="xorux-white" xmlns="http://www.w3.org/2000/svg" xmlns:xlink="http://www.w3.org/1999/xlink" x="0px"
	 y="0px" viewBox="0 0 160 46.2" style="enable-background:new 0 0 160 46.2;" xml:space="preserve">
<style type="text/css">
	.st0{fill:#FFFFFF;}
</style>
<title>loga-web</title>
<g id="Layer_1">
	<polygon class="st0" points="12.4,45.9 12.2,46.2 0,46.2 13.4,23.2 0.3,0.6 12.5,0.6 16.7,9.3 23.3,23.2 12.4,45.9 	"/>
	<polygon class="st0" points="12.4,45.9 12.2,46.2 0,46.2 13.4,23.2 23.3,23.2 12.4,45.9 	"/>
	<polygon class="st0" points="27.1,24.1 40.6,46.2 27.8,46.2 21.9,34.3 27.1,24.1 	"/>
	<polygon class="st0" points="21.8,12 27.4,0.6 39.6,0.6 27.1,22.2 21.8,12 	"/>
	<polygon class="st0" points="147.6,45.3 147.8,45.6 160,45.6 146.6,22.6 159.7,0 147.5,0 143.3,8.7 136.7,22.6 147.6,45.3 	"/>
	<polygon class="st0" points="147.6,45.3 147.8,45.6 160,45.6 146.6,22.6 136.7,22.6 147.6,45.3 	"/>
	<polygon class="st0" points="132.9,23.5 119.4,45.6 132.2,45.6 138.1,33.8 132.9,23.5 	"/>
	<polygon class="st0" points="138.2,11.4 132.6,0 120.4,0 132.9,21.6 138.2,11.4 	"/>
	<path class="st0" d="M120.7,8.2v20.5c0.2,3.2-1.1,6.2-3.6,8.3c-2.7,2.1-6,3.1-9.3,2.9c-3.4,0.2-6.7-0.9-9.4-2.9
		c-2.4-2.1-3.7-5.1-3.6-8.3V8.2h7.3v20.5c-0.1,1.6,0.4,3.1,1.5,4.3c1.2,1,2.7,1.5,4.2,1.4c1.5,0.1,3-0.4,4.1-1.4
		c1.1-1.2,1.6-2.7,1.4-4.3V8.2H120.7z"/>
	<path class="st0" d="M74.3,27.5v12h-7.3V8.2h12c3.6,0,6.5,0.8,8.6,2.5c2.1,1.6,3.3,4.2,3.2,6.9c0,1.5-0.4,3-1.3,4.2
		c-1,1.3-2.3,2.2-3.8,2.8l7,14.9h-7.4l-6-12L74.3,27.5z M74.3,21.9h4.8c1.2,0.1,2.4-0.3,3.3-1c0.8-0.7,1.2-1.8,1.2-2.9
		c0-1.2-0.4-2.3-1.2-3.1c-0.9-0.8-2.1-1.2-3.3-1.2h-4.8V21.9L74.3,21.9z"/>
	<path class="st0" d="M63.8,26.6c0.1,3.5-1.2,7-3.7,9.5c-2.5,2.5-6,3.9-9.6,3.7c-7,0.3-13-5.1-13.3-12.1c0-0.4,0-0.8,0-1.1V21
		c-0.1-3.5,1.2-7,3.7-9.5c2.5-2.5,6-3.9,9.6-3.8c3.6-0.1,7,1.2,9.6,3.8c2.5,2.5,3.8,6,3.7,9.5V26.6L63.8,26.6z M56.6,20.9
		c0.1-2-0.5-3.9-1.6-5.5c-1-1.4-2.7-2.2-4.5-2.2c-1.8-0.1-3.5,0.7-4.5,2.1c-1.1,1.6-1.6,3.5-1.5,5.5v5.7c-0.1,2,0.5,3.9,1.6,5.5
		c1,1.4,2.7,2.2,4.5,2.2c1.7,0.1,3.4-0.7,4.4-2.2c1.1-1.6,1.7-3.6,1.6-5.5L56.6,20.9L56.6,20.9z"/>
</g>
</svg>
